<svg width="11" height="18" viewBox="0 0 11 18" fill="none" xmlns="http://www.w3.org/2000/svg">
<path d="M10.0125 15.0215L4.0933 8.99697L10.0125 2.97246C10.1538 2.8287 10.2658 2.65804 10.3422 2.47022C10.4187 2.2824 10.458 2.08109 10.458 1.8778C10.458 1.6745 10.4187 1.47319 10.3422 1.28537C10.2658 1.09755 10.1538 0.926888 10.0125 0.783135C9.87127 0.639383 9.70359 0.525352 9.51905 0.447553C9.33452 0.369755 9.13673 0.329712 8.93698 0.329712C8.73724 0.329712 8.53945 0.369755 8.35491 0.447553C8.17037 0.525352 8.0027 0.639383 7.86146 0.783135L0.859099 7.91007C0.264127 8.51563 0.264127 9.49383 0.859099 10.0994L7.86146 17.2263C8.00259 17.3703 8.17024 17.4845 8.35479 17.5624C8.53934 17.6403 8.73718 17.6804 8.93698 17.6804C9.13679 17.6804 9.33463 17.6403 9.51918 17.5624C9.70373 17.4845 9.87137 17.3703 10.0125 17.2263C10.5922 16.6208 10.6075 15.627 10.0125 15.0215Z" fill="#4E0101"/>
</svg>
