<svg width="16" height="20" viewBox="0 0 16 20" fill="none" xmlns="http://www.w3.org/2000/svg">
<path d="M2.89194 20H12.7984C14.7296 20 15.6903 19.0205 15.6903 17.0802V8.61015C15.6903 7.40657 15.5598 6.88438 14.8135 6.1194L9.66408 0.886368C8.95562 0.158408 8.37691 0 7.32298 0H2.89194C0.970348 0 0 0.988657 0 2.92935V17.0802C0 19.0297 0.970348 20 2.89194 20ZM2.96637 18.4983C2.00557 18.4983 1.50169 17.9849 1.50169 17.0523V2.95721C1.50169 2.03383 2.00557 1.50169 2.97592 1.50169H7.11761V6.92179C7.11761 8.09711 7.71463 8.67542 8.87124 8.67542H14.1887V17.0523C14.1887 17.9849 13.6939 18.4983 12.724 18.4983H2.96637ZM9.0392 7.26647C8.67542 7.26647 8.52577 7.11761 8.52577 6.74428V1.79104L13.8989 7.26687L9.0392 7.26647ZM11.278 11.2406H4.19741C3.86189 11.2406 3.6195 11.4925 3.6195 11.8098C3.6195 12.1361 3.86229 12.3881 4.19781 12.3881H11.278C11.3543 12.3893 11.4301 12.3752 11.5008 12.3466C11.5715 12.3179 11.6357 12.2754 11.6897 12.2214C11.7436 12.1675 11.7862 12.1032 11.8148 12.0325C11.8434 11.9618 11.8576 11.886 11.8563 11.8098C11.8563 11.4925 11.6044 11.2406 11.278 11.2406ZM11.278 14.4963H4.19741C3.86189 14.4963 3.6195 14.7574 3.6195 15.0838C3.6195 15.401 3.86229 15.6438 4.19781 15.6438H11.278C11.6044 15.6438 11.8563 15.401 11.8563 15.0838C11.8563 14.7574 11.6044 14.4963 11.278 14.4963Z" fill="white"/>
</svg>
