<svg width="20" height="15" viewBox="0 0 20 15" fill="none" xmlns="http://www.w3.org/2000/svg">
<path d="M5.09069 11.781C6.83969 13.149 8.30969 13.587 10.0007 13.587C11.4717 13.587 13.3917 12.974 15.2387 11.668C16.5707 10.726 17.6717 9.353 18.5387 7.538C17.5987 5.90667 16.511 4.569 15.2757 3.525C13.5657 2.077 11.6937 1.413 9.96369 1.413C8.17369 1.413 6.11369 2.211 4.35569 3.887C3.09036 5.09367 2.13036 6.30633 1.47569 7.525C2.54102 9.313 3.74669 10.7317 5.09069 11.781ZM10.0007 15C8.02669 15 6.26569 14.475 4.25969 12.906C2.68302 11.6727 1.29502 10.006 0.0956913 7.906C0.0367554 7.80341 0.00400793 7.68788 0.000345171 7.56963C-0.00331759 7.45137 0.0222173 7.33404 0.0746913 7.228C0.809358 5.736 1.92469 4.277 3.42069 2.851C5.43869 0.928 7.83369 0 9.96369 0C12.0067 0 14.1867 0.775 16.1477 2.434C17.5964 3.66067 18.8507 5.23467 19.9107 7.156C20.0207 7.354 20.0307 7.595 19.9377 7.801C18.9497 10.001 17.6427 11.683 16.0167 12.833C13.9407 14.3 11.7497 15 9.99969 15M10.2337 11.4C9.7478 11.4 9.26667 11.3043 8.81776 11.1184C8.36886 10.9324 7.96097 10.6599 7.6174 10.3163C7.27382 9.97272 7.00128 9.56483 6.81534 9.11593C6.62939 8.66702 6.53369 8.18589 6.53369 7.7C6.53369 7.21411 6.62939 6.73298 6.81534 6.28407C7.00128 5.83517 7.27382 5.42728 7.6174 5.0837C7.96097 4.74013 8.36886 4.46759 8.81776 4.28165C9.26667 4.0957 9.7478 4 10.2337 4C11.215 4 12.1561 4.38982 12.85 5.0837C13.5439 5.77759 13.9337 6.7187 13.9337 7.7C13.9337 8.6813 13.5439 9.62241 12.85 10.3163C12.1561 11.0102 11.215 11.4 10.2337 11.4ZM10.2337 10C10.5357 10 10.8348 9.94051 11.1139 9.82492C11.3929 9.70934 11.6465 9.53992 11.86 9.32635C12.0736 9.11277 12.243 8.85922 12.3586 8.58017C12.4742 8.30112 12.5337 8.00204 12.5337 7.7C12.5337 7.39796 12.4742 7.09888 12.3586 6.81983C12.243 6.54078 12.0736 6.28723 11.86 6.07365C11.6465 5.86008 11.3929 5.69066 11.1139 5.57508C10.8348 5.45949 10.5357 5.4 10.2337 5.4C9.62369 5.4 9.03868 5.64232 8.60735 6.07365C8.17601 6.50499 7.93369 7.09 7.93369 7.7C7.93369 8.31 8.17601 8.89501 8.60735 9.32635C9.03868 9.75768 9.62369 10 10.2337 10Z" fill="#6C6C6C"/>
</svg>
