<svg width="28" height="23" viewBox="0 0 28 23" fill="none" xmlns="http://www.w3.org/2000/svg">
<path d="M12.171 1.97262C12.7193 1.90903 13.2707 1.87733 13.8226 1.87769C19.8881 1.87769 24.7467 5.65297 26.8274 10.981C26.3237 12.2771 25.6432 13.4972 24.8052 14.6068M6.69603 3.85311C4.04305 5.47221 1.9883 7.98083 0.817871 10.981C2.89863 16.3091 7.75722 20.0844 13.8226 20.0844C16.3353 20.0976 18.8024 19.4133 20.9493 18.1076M11.0656 8.22402C10.7033 8.58633 10.4159 9.01646 10.2198 9.48984C10.0238 9.96322 9.92283 10.4706 9.92283 10.983C9.92283 11.4954 10.0238 12.0027 10.2198 12.4761C10.4159 12.9495 10.7033 13.3796 11.0656 13.7419C11.4279 14.1043 11.8581 14.3917 12.3315 14.5877C12.8048 14.7838 13.3122 14.8847 13.8246 14.8847C14.337 14.8847 14.8444 14.7838 15.3177 14.5877C15.7911 14.3917 16.2212 14.1043 16.5836 13.7419" stroke="#6C6C6C" stroke-width="1.56057" stroke-linecap="round" stroke-linejoin="round"/>
<path d="M3.99988 1L24.8075 21.8076" stroke="#6C6C6C" stroke-width="1.56057" stroke-linecap="round"/>
</svg>
