<svg width="175" height="279" viewBox="0 0 175 279" fill="none" xmlns="http://www.w3.org/2000/svg">
<path d="M63.3501 127.75C70.1926 122.679 78.5243 119.7 87.5001 119.7C96.4758 119.7 104.808 122.679 111.65 127.75" stroke="#4E0101" stroke-width="12.075" stroke-linecap="round"/>
<path d="M115.675 75.4256C115.675 78.0762 114.952 80.2938 113.993 81.7312C113.016 83.1968 112.109 83.4756 111.65 83.4756C111.192 83.4756 110.284 83.1968 109.307 81.7312C108.349 80.2938 107.625 78.0762 107.625 75.4256C107.625 72.775 108.349 70.5573 109.307 69.1199C110.284 67.6544 111.192 67.3756 111.65 67.3756C112.109 67.3756 113.016 67.6544 113.993 69.1199C114.952 70.5573 115.675 72.775 115.675 75.4256Z" fill="black" stroke="#4E0101" stroke-width="8.05"/>
<path d="M67.3753 75.4256C67.3753 78.0762 66.6518 80.2938 65.6935 81.7312C64.7165 83.1968 63.8087 83.4756 63.3503 83.4756C62.8918 83.4756 61.9841 83.1968 61.0071 81.7312C60.0488 80.2938 59.3253 78.0762 59.3253 75.4256C59.3253 72.775 60.0488 70.5573 61.0071 69.1199C61.9841 67.6544 62.8918 67.3756 63.3503 67.3756C63.8087 67.3756 64.7165 67.6544 65.6935 69.1199C66.6518 70.5573 67.3753 72.775 67.3753 75.4256Z" fill="black" stroke="#4E0101" stroke-width="8.05"/>
<path d="M7 87.5C7 49.5523 7 30.5785 18.7852 18.7852C30.5865 7 49.5523 7 87.5 7C125.448 7 144.422 7 156.207 18.7852C168 30.5865 168 49.5523 168 87.5C168 125.448 168 144.422 156.207 156.207C144.43 168 125.448 168 87.5 168C49.5523 168 30.5785 168 18.7852 156.207C7 144.43 7 125.448 7 87.5Z" stroke="#4E0101" stroke-width="12.075"/>
<path d="M12.8055 247.027V239.285L35.612 203.251H42.0682V214.274H38.1315L22.7784 238.603V239.022H54.6131V247.027H12.8055ZM38.4464 257V244.665L38.5514 241.201V203.251H47.737V257H38.4464ZM87.4844 258.024C83.1628 258.024 79.4536 256.93 76.3567 254.743C73.2774 252.538 70.9066 249.363 69.2445 245.216C67.5998 241.052 66.7775 236.039 66.7775 230.178C66.795 224.317 67.626 219.33 69.2707 215.219C70.9329 211.089 73.3036 207.94 76.383 205.771C79.4798 203.601 83.1803 202.516 87.4844 202.516C91.7886 202.516 95.489 203.601 98.5859 205.771C101.683 207.94 104.054 211.089 105.698 215.219C107.36 219.348 108.191 224.334 108.191 230.178C108.191 236.057 107.36 241.078 105.698 245.242C104.054 249.389 101.683 252.556 98.5859 254.743C95.5065 256.93 91.8061 258.024 87.4844 258.024ZM87.4844 249.809C90.8438 249.809 93.4945 248.156 95.4366 244.849C97.3962 241.524 98.3759 236.634 98.3759 230.178C98.3759 225.909 97.9298 222.322 97.0375 219.418C96.1452 216.513 94.8854 214.326 93.2583 212.857C91.6311 211.369 89.7065 210.626 87.4844 210.626C84.1426 210.626 81.5007 212.288 79.5586 215.612C77.6165 218.919 76.6367 223.774 76.6192 230.178C76.6017 234.465 77.0303 238.069 77.9052 240.991C78.7975 243.913 80.0572 246.117 81.6844 247.604C83.3116 249.074 85.2449 249.809 87.4844 249.809ZM120.559 247.027V239.285L143.366 203.251H149.822V214.274H145.885L130.532 238.603V239.022H162.367V247.027H120.559ZM146.2 257V244.665L146.305 241.201V203.251H155.491V257H146.2Z" fill="#4E0101"/>
</svg>
