<svg width="27" height="27" viewBox="0 0 27 27" fill="none" xmlns="http://www.w3.org/2000/svg">
<path d="M7.65501 0.230652H20.6032C21.4303 0.259627 22.0691 0.499336 22.4564 1.03407C22.7645 1.45817 22.9239 1.9929 22.9568 2.66857L22.9555 5.42521H24.5347C25.3605 5.45419 25.9993 5.69258 26.3865 6.22731C26.6947 6.65141 26.8541 7.18747 26.887 7.86313V18.5275C26.8844 19.352 26.8264 19.9684 26.5986 20.3951C26.2456 21.0537 25.5923 21.3474 24.5044 21.4343L22.9568 21.433V24C22.9568 24.6019 22.8488 25.1314 22.6184 25.5805C22.2943 26.21 21.6766 26.5275 20.8838 26.5459H6.76862C5.98627 26.5459 5.34354 26.2601 4.94314 25.674C4.62353 25.2051 4.45451 24.6471 4.43607 24V21.433H3.09265C2.12196 21.433 1.38044 21.1432 0.986637 20.4689C0.692929 19.9658 0.555952 19.3217 0.54805 18.5249V8.13971C0.519074 7.30205 0.690295 6.61585 1.10781 6.10746C1.61225 5.49107 2.48679 5.32511 3.68402 5.42521L4.51773 5.4239L4.51904 2.94515C4.49007 2.10749 4.66129 1.42261 5.0788 0.912899C5.58324 0.297823 6.4591 0.131871 7.65501 0.230652ZM21.1933 16.2081H6.19964V23.9723C6.20886 24.2713 6.27866 24.4992 6.39983 24.6783C6.4433 24.7415 6.53154 24.781 6.76862 24.781H20.8627C20.9198 24.7802 20.9769 24.7776 21.0339 24.7731H21.0497C21.1419 24.5953 21.1946 24.3385 21.1946 24L21.1933 16.2081ZM19.3783 22.1798C19.6124 22.1798 19.8368 22.2728 20.0023 22.4382C20.1678 22.6037 20.2608 22.8282 20.2608 23.0622C20.2608 23.2963 20.1678 23.5207 20.0023 23.6862C19.8368 23.8517 19.6124 23.9447 19.3783 23.9447H8.07779C7.84375 23.9447 7.6193 23.8517 7.45381 23.6862C7.28832 23.5207 7.19535 23.2963 7.19535 23.0622C7.19535 22.8282 7.28832 22.6037 7.45381 22.4382C7.6193 22.2728 7.84375 22.1798 8.07779 22.1798H19.3783ZM19.3783 19.6813C19.6124 19.6813 19.8368 19.7743 20.0023 19.9397C20.1678 20.1052 20.2608 20.3297 20.2608 20.5637C20.2608 20.7978 20.1678 21.0222 20.0023 21.1877C19.8368 21.3532 19.6124 21.4462 19.3783 21.4462H8.07779C7.84375 21.4462 7.6193 21.3532 7.45381 21.1877C7.28832 21.0222 7.19535 20.7978 7.19535 20.5637C7.19535 20.3297 7.28832 20.1052 7.45381 19.9397C7.6193 19.7743 7.84375 19.6813 8.07779 19.6813H19.3783ZM3.61289 7.18747C2.86348 7.1901 2.69094 7.1901 2.53289 7.37186C2.37484 7.55625 2.29581 7.63264 2.31162 8.10942V18.517C2.31689 19.0227 2.33269 19.2651 2.44728 19.4495C2.56186 19.6339 2.68435 19.6694 3.09265 19.6694L4.43607 19.6681V16.2081H4.25958C4.02554 16.2081 3.80109 16.1152 3.6356 15.9497C3.47011 15.7842 3.37714 15.5597 3.37714 15.3257C3.37714 15.0917 3.47011 14.8672 3.6356 14.7017C3.80109 14.5362 4.02554 14.4433 4.25958 14.4433H23.2308C23.4648 14.4433 23.6893 14.5362 23.8548 14.7017C24.0203 14.8672 24.1132 15.0917 24.1132 15.3257C24.1132 15.5597 24.0203 15.7842 23.8548 15.9497C23.6893 16.1152 23.4648 16.2081 23.2308 16.2081H22.9568V19.6681L24.432 19.6721C24.7059 19.6497 24.8627 19.6786 25.0049 19.5298C25.1471 19.3797 25.1221 19.0162 25.1234 18.5249V7.90659C25.1089 7.59313 25.08 7.48776 24.9825 7.37317C24.885 7.25859 24.8113 7.20195 24.5044 7.1901L3.61289 7.18747ZM19.3783 17.1841C19.6124 17.1841 19.8368 17.2771 20.0023 17.4426C20.1678 17.608 20.2608 17.8325 20.2608 18.0665C20.2608 18.3006 20.1678 18.525 20.0023 18.6905C19.8368 18.856 19.6124 18.949 19.3783 18.949H8.07779C7.84375 18.949 7.6193 18.856 7.45381 18.6905C7.28832 18.525 7.19535 18.3006 7.19535 18.0665C7.19535 17.8325 7.28832 17.608 7.45381 17.4426C7.6193 17.2771 7.84375 17.1841 8.07779 17.1841H19.3783ZM21.7293 7.99352C22.077 7.99369 22.4212 8.06234 22.7423 8.19554C23.0634 8.32874 23.3552 8.52388 23.6009 8.76983C23.8466 9.01578 24.0414 9.30772 24.1743 9.62897C24.3072 9.95023 24.3755 10.2945 24.3753 10.6422C24.3752 10.9898 24.3065 11.334 24.1733 11.6552C24.0401 11.9763 23.845 12.268 23.599 12.5137C23.3531 12.7594 23.0611 12.9543 22.7399 13.0872C22.4186 13.22 22.0743 13.2884 21.7267 13.2882C21.0246 13.2878 20.3514 13.0086 19.8551 12.5119C19.3589 12.0151 19.0803 11.3416 19.0807 10.6395C19.081 9.93742 19.3603 9.2642 19.857 8.76797C20.3537 8.27175 21.0272 7.99317 21.7293 7.99352ZM21.7293 9.7584C21.4953 9.7584 21.2708 9.85138 21.1053 10.0169C20.9398 10.1824 20.8469 10.4068 20.8469 10.6408C20.8469 10.8749 20.9398 11.0993 21.1053 11.2648C21.2708 11.4303 21.4953 11.5233 21.7293 11.5233C21.9634 11.5233 22.1878 11.4303 22.3533 11.2648C22.5188 11.0993 22.6118 10.8749 22.6118 10.6408C22.6118 10.4068 22.5188 10.1824 22.3533 10.0169C22.1878 9.85138 21.9634 9.7584 21.7293 9.7584ZM6.4433 2.03242C6.3353 2.16412 6.26681 2.43939 6.28261 2.91486L6.2813 5.4239L21.192 5.42521L21.1933 2.71203C21.1775 2.39988 21.1156 2.18915 21.0286 2.07061C21.022 2.06008 20.8811 2.00739 20.5729 1.99686L7.58389 1.9929C6.85028 1.93364 6.46305 2.00739 6.4433 2.03242Z" fill="#4E0101"/>
</svg>
