<svg width="24" height="20" viewBox="0 0 24 20" fill="none" xmlns="http://www.w3.org/2000/svg">
<path d="M14.3234 19.7046L23.9287 10.0493L14.3234 0.393968C14.2366 0.28005 14.1264 0.1861 14.0002 0.118479C13.874 0.0508586 13.7347 0.0111456 13.5918 0.00202842C13.4489 -0.0070888 13.3057 0.0146032 13.172 0.0656352C13.0382 0.116667 12.9169 0.195848 12.8164 0.297817C12.7159 0.399787 12.6384 0.522164 12.5893 0.656664C12.5402 0.791164 12.5205 0.934647 12.5317 1.0774C12.5429 1.22015 12.5846 1.35884 12.654 1.48408C12.7234 1.60931 12.8189 1.71817 12.9341 1.80328L20.1206 9.04976L0.999855 9.04976C0.734768 9.04976 0.480539 9.15507 0.293093 9.34251C0.105648 9.52996 0.000341532 9.78419 0.000341535 10.0493C0.000341538 10.3144 0.105648 10.5686 0.293093 10.756C0.480539 10.9435 0.734768 11.0488 0.999855 11.0488L20.1206 11.0488L12.9341 18.2953C12.7472 18.4835 12.6427 18.7382 12.6436 19.0035C12.6446 19.2687 12.7508 19.5227 12.9391 19.7096C13.1273 19.8965 13.382 20.0009 13.6472 20C13.9125 19.9991 14.1665 19.8928 14.3534 19.7046L14.3234 19.7046Z" fill="#CCCCCC"/>
</svg>
