<svg width="27" height="26" viewBox="0 0 27 26" fill="none" xmlns="http://www.w3.org/2000/svg">
<path d="M13.6002 18.4587C14.9433 18.4587 16.2314 17.9252 17.1811 16.9755C18.1309 16.0257 18.6644 14.7376 18.6644 13.3945C18.6644 12.0514 18.1309 10.7633 17.1811 9.81359C16.2314 8.86387 14.9433 8.33032 13.6002 8.33032C12.2571 8.33032 10.969 8.86387 10.0193 9.81359C9.06956 10.7633 8.53601 12.0514 8.53601 13.3945C8.53601 14.7376 9.06956 16.0257 10.0193 16.9755C10.969 17.9252 12.2571 18.4587 13.6002 18.4587Z" stroke="#68402F" stroke-width="2.44167" stroke-linecap="round" stroke-linejoin="round"/>
<path d="M2.20569 18.4587V8.33025C2.20569 6.65136 2.87262 5.04124 4.05978 3.85409C5.24693 2.66694 6.85705 2 8.53594 2H18.6643C20.3432 2 21.9534 2.66694 23.1405 3.85409C24.3277 5.04124 24.9946 6.65136 24.9946 8.33025V18.4587C24.9946 20.1375 24.3277 21.7477 23.1405 22.9348C21.9534 24.122 20.3432 24.7889 18.6643 24.7889H8.53594C6.85705 24.7889 5.24693 24.122 4.05978 22.9348C2.87262 21.7477 2.20569 20.1375 2.20569 18.4587Z" stroke="#68402F" stroke-width="2.44167"/>
<path d="M20.5635 6.44353L20.5758 6.42993" stroke="#68402F" stroke-width="2.44167" stroke-linecap="round" stroke-linejoin="round"/>
</svg>
