<svg width="24" height="23" viewBox="0 0 24 23" fill="none" xmlns="http://www.w3.org/2000/svg">
<path d="M20.6679 0C21.3395 0 21.9835 0.266774 22.4584 0.741635C22.9333 1.2165 23.2 1.86055 23.2 2.5321V20.2568C23.2 20.9284 22.9333 21.5724 22.4584 22.0473C21.9835 22.5221 21.3395 22.7889 20.6679 22.7889H2.94323C2.27168 22.7889 1.62763 22.5221 1.15277 22.0473C0.677907 21.5724 0.411133 20.9284 0.411133 20.2568V2.5321C0.411133 1.86055 0.677907 1.2165 1.15277 0.741635C1.62763 0.266774 2.27168 0 2.94323 0H20.6679ZM20.0349 19.6238V12.9137C20.0349 11.8191 19.6001 10.7693 18.826 9.99526C18.052 9.22123 17.0022 8.78639 15.9076 8.78639C14.8314 8.78639 13.5781 9.44474 12.9704 10.4323V9.02694H9.43807V19.6238H12.9704V13.3822C12.9704 12.4073 13.7553 11.6097 14.7302 11.6097C15.2003 11.6097 15.6511 11.7964 15.9835 12.1288C16.3159 12.4612 16.5026 12.9121 16.5026 13.3822V19.6238H20.0349ZM5.32341 7.03924C5.88752 7.03924 6.42852 6.81515 6.8274 6.41627C7.22628 6.01738 7.45037 5.47638 7.45037 4.91228C7.45037 3.73485 6.50084 2.77265 5.32341 2.77265C4.75594 2.77265 4.21172 2.99807 3.81046 3.39933C3.40921 3.80059 3.18378 4.34481 3.18378 4.91228C3.18378 6.0897 4.14598 7.03924 5.32341 7.03924ZM7.08322 19.6238V9.02694H3.57626V19.6238H7.08322Z" fill="#68402F"/>
</svg>
